<svg width="119" height="124" viewBox="0 0 119 124" fill="none" xmlns="http://www.w3.org/2000/svg">
<path d="M3.65859 85.9458C-2.36442 55.2772 0.526715 47.1634 2.00157 40.5255C7.59558 15.3485 22.14 11.6832 24.0013 9.33975C35.4291 5.38544 37.7485 3.50053 58.8965 0C77.3157 -2.18278e-06 80.5417 2.38727 94.5794 8.15904C113.511 15.943 118.991 37.2854 118.991 55.2772C118.991 72.9143 119.649 86.2819 109.925 101.112C106.356 106.553 100.698 114.478 89.7316 119.692C83.9261 123.193 65.434 124 58.8965 124C39.2665 124 32.1374 122.19 17.503 107.748C11.6261 101.949 5.60106 94.0391 3.65859 85.9458Z" fill="#B0CFFF"/>
</svg>
