<svg width="24" height="21" viewBox="0 0 24 21" fill="none" xmlns="http://www.w3.org/2000/svg">
<path d="M16.004 17.1534L14.004 16.0004C13.8777 15.9277 13.7689 15.8282 13.6851 15.7089C13.6014 15.5896 13.5447 15.4534 13.5192 15.3099C13.4937 15.1664 13.4998 15.019 13.5373 14.8781C13.5747 14.7373 13.6426 14.6063 13.736 14.4944L14.083 14.0774C14.707 13.3804 15.083 12.4964 15.154 11.5624C15.1815 11.0881 15.1278 10.6126 14.995 10.1564C14.8587 9.7402 14.637 9.35701 14.344 9.03145C14.0463 8.70626 13.6843 8.44658 13.2808 8.26892C12.8774 8.09127 12.4413 7.99952 12.0005 7.99952C11.5597 7.99952 11.1236 8.09127 10.7202 8.26892C10.3167 8.44658 9.95465 8.70626 9.657 9.03145C9.36372 9.35697 9.14165 9.74015 9.005 10.1564C8.87223 10.6126 8.81846 11.0881 8.846 11.5624C8.916 12.4964 9.293 13.3804 9.917 14.0774L10.265 14.4944C10.3582 14.6065 10.4258 14.7375 10.4631 14.8784C10.5004 15.0192 10.5065 15.1666 10.4808 15.31C10.4552 15.4535 10.3985 15.5896 10.3148 15.7089C10.231 15.8281 10.1222 15.9276 9.996 16.0004L7.996 17.1534C7.38794 17.5045 6.883 18.0094 6.53192 18.6175C6.18085 19.2256 5.99602 19.9153 5.996 20.6174V20.6684H17.996V20.6184C17.997 19.9169 17.8134 19.2275 17.4638 18.6193C17.1142 18.0111 16.6107 17.5056 16.004 17.1534ZM6.853 11.6814C6.8106 10.9489 6.89933 10.2148 7.115 9.51345C7.30626 8.95025 7.59201 8.42373 7.96 7.95645C7.84334 7.87991 7.74413 7.77962 7.66886 7.66213C7.59359 7.54464 7.54396 7.4126 7.5232 7.27462C7.50243 7.13665 7.51101 6.99584 7.54837 6.86141C7.58573 6.72697 7.65103 6.60193 7.74 6.49445L8.087 6.07745C8.711 5.38045 9.087 4.49645 9.158 3.56245C9.18554 3.08814 9.13177 2.61262 8.999 2.15645C8.86276 1.74018 8.64102 1.35699 8.348 1.03145C8.05027 0.706397 7.68817 0.446839 7.28472 0.269269C6.88127 0.0916991 6.4453 0 6.0045 0C5.5637 0 5.12773 0.0916991 4.72428 0.269269C4.32083 0.446839 3.95873 0.706397 3.661 1.03145C3.3677 1.35695 3.14562 1.74013 3.009 2.15645C2.87623 2.61262 2.82246 3.08814 2.85 3.56245C2.92 4.49645 3.297 5.38045 3.921 6.07745L4.269 6.49445C4.36223 6.60645 4.42985 6.73748 4.46713 6.87836C4.50441 7.01924 4.51045 7.16656 4.48483 7.31002C4.4592 7.45348 4.40253 7.5896 4.31879 7.70886C4.23504 7.82813 4.12624 7.92764 4 8.00045L2 9.15345C1.39194 9.50451 0.886996 10.0094 0.535924 10.6175C0.184851 11.2256 1.78369e-05 11.9153 0 12.6174L0 12.6684H6.993C6.91832 12.344 6.87148 12.0138 6.853 11.6814ZM22.004 9.15345L20.004 8.00045C19.8778 7.92755 19.7691 7.82797 19.6855 7.70867C19.6018 7.58937 19.5453 7.45323 19.5197 7.30978C19.4942 7.16633 19.5003 7.01903 19.5377 6.87819C19.575 6.73736 19.6427 6.60639 19.736 6.49445L20.083 6.07745C20.707 5.38045 21.083 4.49645 21.154 3.56245C21.1815 3.08814 21.1278 2.61262 20.995 2.15645C20.8588 1.74018 20.637 1.35699 20.344 1.03145C20.0463 0.706397 19.6842 0.446839 19.2807 0.269269C18.8773 0.0916991 18.4413 0 18.0005 0C17.5597 0 17.1237 0.0916991 16.7203 0.269269C16.3168 0.446839 15.9547 0.706397 15.657 1.03145C15.3637 1.35695 15.1416 1.74013 15.005 2.15645C14.8722 2.61262 14.8185 3.08814 14.846 3.56245C14.916 4.49645 15.293 5.38045 15.917 6.07745L16.265 6.49445C16.3538 6.60206 16.4189 6.72716 16.4561 6.86161C16.4933 6.99607 16.5017 7.13685 16.4809 7.27478C16.46 7.41271 16.4103 7.54471 16.3351 7.66216C16.2598 7.77961 16.1606 7.87988 16.044 7.95645C16.412 8.42445 16.698 8.95045 16.889 9.51345C17.106 10.2144 17.194 10.9484 17.151 11.6814C17.131 12.0134 17.083 12.3444 17.008 12.6684H24V12.6184C24.0006 11.9165 23.8164 11.2268 23.4661 10.6186C23.1157 10.0104 22.6115 9.5051 22.004 9.15345Z" fill="#084848"/>
</svg>
