<svg width="60" height="83" viewBox="0 0 60 83" fill="none" xmlns="http://www.w3.org/2000/svg">
<path d="M-17.5404 57.5283C-21.5895 37.0001 -19.6459 31.569 -18.6544 27.1259C-14.8937 10.2736 -5.116 7.82023 -3.86465 6.2516C3.81787 3.60477 5.37717 2.34309 19.5943 0C31.977 -1.46106e-06 34.1456 1.59793 43.5828 5.46129C56.3099 10.6715 59.9937 24.9572 59.9937 37.0001C59.9937 48.8055 60.4362 57.7532 53.8988 67.6797C51.5001 71.322 47.6964 76.6266 40.3237 80.1162C36.4209 82.4595 23.9892 83 19.5943 83C6.39764 83 1.60496 81.7882 -8.23331 72.1219C-12.1842 68.2402 -16.2346 62.9455 -17.5404 57.5283Z" fill="#FF8B4A"/>
</svg>
