<svg width="24" height="24" viewBox="0 0 24 24" fill="none" xmlns="http://www.w3.org/2000/svg">
<path d="M3 8.00021C3 7.73499 3.10536 7.48064 3.29289 7.2931C3.48043 7.10556 3.73478 7.00021 4 7.00021H7.5V9.00021H5V20.0002H19V9.00021H16.5V7.00021H20C20.2652 7.00021 20.5196 7.10556 20.7071 7.2931C20.8946 7.48064 21 7.73499 21 8.00021V21.0002C21 21.2654 20.8946 21.5198 20.7071 21.7073C20.5196 21.8948 20.2652 22.0002 20 22.0002H4C3.73478 22.0002 3.48043 21.8948 3.29289 21.7073C3.10536 21.5198 3 21.2654 3 21.0002V8.00021Z" fill="#084848"/>
<path d="M12 12.3262C12.2652 12.3262 12.5196 12.2208 12.7071 12.0333C12.8946 11.8458 13 11.5914 13 11.3262V3.84121L14.793 5.63421C14.8852 5.72972 14.9956 5.8059 15.1176 5.85831C15.2396 5.91072 15.3708 5.9383 15.5036 5.93946C15.6364 5.94061 15.7681 5.91531 15.891 5.86503C16.0139 5.81475 16.1255 5.74049 16.2194 5.6466C16.3133 5.55271 16.3875 5.44106 16.4378 5.31816C16.4881 5.19526 16.5134 5.06358 16.5123 4.93081C16.5111 4.79803 16.4835 4.66681 16.4311 4.5448C16.3787 4.4228 16.3025 4.31245 16.207 4.22021L12 0.012207L7.793 4.22021C7.69749 4.31245 7.62131 4.4228 7.5689 4.5448C7.51649 4.66681 7.4889 4.79803 7.48775 4.93081C7.4866 5.06358 7.5119 5.19526 7.56218 5.31816C7.61246 5.44106 7.68671 5.55271 7.7806 5.6466C7.8745 5.74049 7.98615 5.81475 8.10905 5.86503C8.23194 5.91531 8.36362 5.94061 8.4964 5.93946C8.62918 5.9383 8.7604 5.91072 8.8824 5.85831C9.00441 5.8059 9.11475 5.72972 9.207 5.63421L11 3.84021V11.3252C11 11.5904 11.1054 11.8448 11.2929 12.0323C11.4804 12.2198 11.7348 12.3252 12 12.3252V12.3262Z" fill="#084848"/>
</svg>
