<svg width="24" height="24" viewBox="0 0 24 24" fill="none" xmlns="http://www.w3.org/2000/svg">
<path d="M7.25 12C7.58152 12 7.89946 11.8683 8.13388 11.6339C8.3683 11.3995 8.5 11.0815 8.5 10.75C8.5 10.4185 8.3683 10.1005 8.13388 9.86612C7.89946 9.6317 7.58152 9.5 7.25 9.5C6.91848 9.5 6.60054 9.6317 6.36612 9.86612C6.1317 10.1005 6 10.4185 6 10.75C6 11.0815 6.1317 11.3995 6.36612 11.6339C6.60054 11.8683 6.91848 12 7.25 12ZM13.25 10.75C13.25 11.0815 13.1183 11.3995 12.8839 11.6339C12.6495 11.8683 12.3315 12 12 12C11.6685 12 11.3505 11.8683 11.1161 11.6339C10.8817 11.3995 10.75 11.0815 10.75 10.75C10.75 10.4185 10.8817 10.1005 11.1161 9.86612C11.3505 9.6317 11.6685 9.5 12 9.5C12.3315 9.5 12.6495 9.6317 12.8839 9.86612C13.1183 10.1005 13.25 10.4185 13.25 10.75ZM16.75 12C17.0815 12 17.3995 11.8683 17.6339 11.6339C17.8683 11.3995 18 11.0815 18 10.75C18 10.4185 17.8683 10.1005 17.6339 9.86612C17.3995 9.6317 17.0815 9.5 16.75 9.5C16.4185 9.5 16.1005 9.6317 15.8661 9.86612C15.6317 10.1005 15.5 10.4185 15.5 10.75C15.5 11.0815 15.6317 11.3995 15.8661 11.6339C16.1005 11.8683 16.4185 12 16.75 12Z" fill="#084848"/>
<path d="M5 2C3.93913 2 2.92172 2.42143 2.17157 3.17157C1.42143 3.92172 1 4.93913 1 6V15C1 16.0609 1.42143 17.0783 2.17157 17.8284C2.92172 18.5786 3.93913 19 5 19H7.586L11.293 22.707C11.4805 22.8945 11.7348 22.9998 12 22.9998C12.2652 22.9998 12.5195 22.8945 12.707 22.707L16.414 19H19C20.0609 19 21.0783 18.5786 21.8284 17.8284C22.5786 17.0783 23 16.0609 23 15V6C23 4.93913 22.5786 3.92172 21.8284 3.17157C21.0783 2.42143 20.0609 2 19 2H5ZM3 6C3 5.46957 3.21071 4.96086 3.58579 4.58579C3.96086 4.21071 4.46957 4 5 4H19C19.5304 4 20.0391 4.21071 20.4142 4.58579C20.7893 4.96086 21 5.46957 21 6V15C21 15.5304 20.7893 16.0391 20.4142 16.4142C20.0391 16.7893 19.5304 17 19 17H16C15.7348 17.0001 15.4805 17.1054 15.293 17.293L12 20.586L8.707 17.293C8.51951 17.1054 8.26519 17.0001 8 17H5C4.46957 17 3.96086 16.7893 3.58579 16.4142C3.21071 16.0391 3 15.5304 3 15V6Z" fill="#084848"/>
</svg>
